HIERARCHY
ROOT reference
{
  OFFSET 0 0 0
  CHANNELS 6 Xposition Yposition Zposition Zrotation Xrotation Yrotation
  JOINT Hips
  {
    OFFSET 11.6956 67.6413 131.638
    CHANNELS 6 Xposition Yposition Zposition Zrotation Xrotation Yrotation
    JOINT Spine
    {
      OFFSET 0 7.81434 0
      CHANNELS 6 Xposition Yposition Zposition Zrotation Xrotation Yrotation
      JOINT Spine1
      {
        OFFSET 0 23.3781 0
        CHANNELS 6 Xposition Yposition Zposition Zrotation Xrotation Yrotation
        JOINT Neck
        {
          OFFSET 0 23.2821 2.11656
          CHANNELS 6 Xposition Yposition Zposition Zrotation Xrotation Yrotation
          JOINT Head
          {
            OFFSET 0 13.3416 -1.90594
            CHANNELS 6 Xposition Yposition Zposition Zrotation Xrotation Yrotation
            End Site
            {
              OFFSET 0 23.8242 0
            }
          }
        }
        JOINT LeftShoulder
        {
          OFFSET 3.82472 21.4916 -0.175476
          CHANNELS 6 Xposition Yposition Zposition Zrotation Xrotation Yrotation
          JOINT LeftArm
          {
            OFFSET 10.8239 0 0
            CHANNELS 6 Xposition Yposition Zposition Zrotation Xrotation Yrotation
            JOINT LeftForeArm
            {
              OFFSET 28.5356 0 0
              CHANNELS 6 Xposition Yposition Zposition Zrotation Xrotation Yrotation
              JOINT LeftHand
              {
                OFFSET 24.5315 0 0
                CHANNELS 6 Xposition Yposition Zposition Zrotation Xrotation Yrotation
                End Site
                {
                  OFFSET 14.2945 0 0
                }
              }
            }
          }
        }
        JOINT RightShoulder
        {
          OFFSET -3.77033 21.4916 -0.175476
          CHANNELS 6 Xposition Yposition Zposition Zrotation Xrotation Yrotation
          JOINT RightArm
          {
            OFFSET -10.8239 0 0
            CHANNELS 6 Xposition Yposition Zposition Zrotation Xrotation Yrotation
            JOINT RightForeArm
            {
              OFFSET -28.5356 0 0
              CHANNELS 6 Xposition Yposition Zposition Zrotation Xrotation Yrotation
              JOINT RightHand
              {
                OFFSET -24.5315 0 0
                CHANNELS 6 Xposition Yposition Zposition Zrotation Xrotation Yrotation
                End Site
                {
                  OFFSET -14.2945 0 0
                }
              }
            }
          }
        }
      }
    }
    JOINT LeftUpLeg
    {
      OFFSET 9.52968 0 0
      CHANNELS 6 Xposition Yposition Zposition Zrotation Xrotation Yrotation
      JOINT LeftLeg
      {
        OFFSET 0 -40.1884 0
        CHANNELS 6 Xposition Yposition Zposition Zrotation Xrotation Yrotation
        JOINT LeftFoot
        {
          OFFSET 0 -39.9954 0
          CHANNELS 6 Xposition Yposition Zposition Zrotation Xrotation Yrotation
          JOINT LeftToeBase
          {
            OFFSET 0 -6.19429 14.2945
            CHANNELS 6 Xposition Yposition Zposition Zrotation Xrotation Yrotation
            End Site
            {
              OFFSET 0 0 3.81187
            }
          }
        }
      }
    }
    JOINT RightUpLeg
    {
      OFFSET -9.52968 0 0
      CHANNELS 6 Xposition Yposition Zposition Zrotation Xrotation Yrotation
      JOINT RightLeg
      {
        OFFSET 0 -40.1884 0
        CHANNELS 6 Xposition Yposition Zposition Zrotation Xrotation Yrotation
        JOINT RightFoot
        {
          OFFSET 0 -39.9954 0
          CHANNELS 6 Xposition Yposition Zposition Zrotation Xrotation Yrotation
          JOINT RightToeBase
          {
            OFFSET 0 -6.19429 14.2945
            CHANNELS 6 Xposition Yposition Zposition Zrotation Xrotation Yrotation
            End Site
            {
              OFFSET 0 0 3.81187
            }
          }
        }
      }
    }
  }
}
MOTION
Frames:	4
Frame Time:	0.004
0 0 0 0 0 -0 -14.037 78.8457 -94.8013 -3.11783 -0.047782 12.9511 -3.55271e-015 7.81434 1.42109e-014 3.52752 31.1988 -3.07318 0 23.3781 -1.42109e-014 1.76749 10.9908 -2.25804 0 23.2821 2.11656 5.07898 7.29078 -1.41263 -4.44089e-016 13.3416 -1.90594 -3.21873 -22.6358 -2.96442 3.82472 21.4916 -0.175476 -13.122 27.6655 9.579 10.8239 -7.10543e-015 0 -44.4586 33.4744 -18.8132 28.5356 1.42109e-014 1.42109e-014 37.042 -42.6388 -92.8462 24.5315 -7.10543e-015 -1.42109e-014 27.1234 -4.88541 0.746601 -3.77033 21.4916 -0.175476 15.8763 27.7558 1.07771 -10.8239 7.10543e-015 0 38.2294 27.8727 28.1037 -28.5356 0 -1.42109e-014 -53.1936 -46.1403 70.6346 -24.5315 7.10543e-015 7.10543e-015 -19.4953 -8.62805 -5.66038 9.52968 1.42109e-014 1.42109e-014 8.93502 -25.2981 10.38 0 -40.1884 0 15.7457 78.4833 -14.0808 0 -39.9954 0 2.92024 4.98219 -9.55716 0 -6.19429 14.2945 -3.18055e-015 -3.18055e-015 7.95139e-016 -9.52968 1.42109e-014 1.42109e-014 -4.92988 -49.827 -16.3414 0 -40.1884 -7.10543e-015 0.866276 42.6625 -16.2161 0 -39.9954 -7.10543e-015 2.3235 29.032 8.31267 -3.55271e-015 -6.19429 14.2945 -3.18055e-015 0 -7.95139e-016 
0 0 0 0 0 -0 -14.0589 78.6502 -94.2322 -3.13307 -0.114997 12.9374 0 7.81434 0 3.45352 31.1516 -2.99576 -1.77636e-015 23.3781 1.42109e-014 1.95855 11.1317 -2.22362 0 23.2821 2.11656 4.77059 7.35776 -1.47532 1.33227e-015 13.3416 -1.90594 -2.81435 -22.8812 -2.87189 3.82472 21.4916 -0.175476 -13.1817 27.572 9.60248 10.8239 0 0 -44.7094 33.3764 -18.4874 28.5356 0 0 36.8537 -42.5502 -93.2994 24.5315 -7.10543e-015 -7.10543e-015 27.3557 -4.66847 0.674858 -3.77033 21.4916 -0.175476 15.799 27.6475 1.06109 -10.8239 -7.10543e-015 0 38.3063 27.858 27.9586 -28.5356 0 1.42109e-014 -53.2519 -46.161 70.7915 -24.5315 1.42109e-014 -7.10543e-015 -19.4961 -8.486 -5.53841 9.52968 0 0 9.35224 -25.7093 10.4197 0 -40.1884 0 16.4386 79.5925 -15.2172 0 -39.9954 0 3.35817 4.28558 -9.40765 0 -6.19429 14.2945 8.82781e-032 6.36111e-015 -7.95139e-016 -9.52968 -1.42109e-014 -1.42109e-014 -4.5849 -49.6633 -16.3351 0 -40.1884 0 0.664649 43.5009 -15.5748 0 -39.9954 0 2.05241 27.0591 8.20905 0 -6.19429 14.2945 2.64834e-031 -9.54166e-015 1.59028e-015 
0 0 0 0 0 -0 -14.0655 78.4394 -93.6647 -3.13174 -0.254968 12.9709 7.10543e-015 7.81434 -1.42109e-014 3.47076 31.18 -2.99364 -1.77636e-015 23.3781 1.42109e-014 2.06736 11.2827 -2.22911 0 23.2821 2.11656 4.77814 7.23827 -1.46359 1.77636e-015 13.3416 -1.90594 -2.92147 -22.8871 -2.90159 3.82472 21.4916 -0.175476 -13.1936 27.5339 9.66603 10.8239 0 0 -44.9502 33.2186 -18.2505 28.5356 0 0 36.7404 -42.4752 -93.7105 24.5315 0 7.10543e-015 27.3653 -4.44761 0.427804 -3.77033 21.4916 -0.175476 15.7515 27.6268 1.03711 -10.8239 0 -2.84217e-014 38.3339 27.7789 27.929 -28.5356 0 0 -53.3041 -46.1973 70.9492 -24.5315 7.10543e-015 -7.10543e-015 -19.5497 -8.34462 -5.55527 9.52968 0 0 9.65254 -26.0868 10.3769 0 -40.1884 7.10543e-015 17.637 80.6572 -16.7351 -7.10543e-015 -39.9954 0 4.00462 3.75969 -9.13152 -3.55271e-015 -6.19429 14.2945 1.59028e-015 -6.36111e-015 7.95139e-016 -9.52968 0 0 -4.24012 -49.4122 -16.5235 1.77636e-015 -40.1884 0 0.14759 44.2723 -14.7983 -3.55271e-015 -39.9954 0 1.49055 25.1688 8.50212 0 -6.19429 14.2945 2.18663e-015 3.18055e-015 7.95139e-016 
0 0 0 0 0 -0 -14.0496 78.2166 -93.0986 -3.03425 -0.453617 13.0962 0 7.81434 0 3.52881 31.3389 -3.09198 1.77636e-015 23.3781 0 2.10124 11.3701 -2.31095 1.77636e-015 23.2821 2.11656 4.71564 7.14307 -1.48379 -4.44089e-016 13.3416 -1.90594 -2.80383 -22.921 -2.88278 3.82472 21.4916 -0.175476 -13.1949 27.5578 9.78457 10.8239 -7.10543e-015 0 -45.1577 33.0494 -18.0656 28.5356 0 0 36.5946 -42.3582 -94.1837 24.5315 7.10543e-015 0 27.6578 -4.06832 0.564816 -3.77033 21.4916 -0.175476 15.687 27.5917 1.11976 -10.8239 -7.10543e-015 2.84217e-014 38.3831 27.8775 27.7993 -28.5356 -1.42109e-014 1.42109e-014 -53.4971 -46.3263 70.9624 -24.5315 0 0 -20.0815 -8.29071 -5.5842 9.52968 0 0 9.74457 -26.4573 10.071 0 -40.1884 -7.10543e-015 18.572 81.6953 -17.0364 -7.10543e-015 -39.9954 0 4.31048 3.32205 -9.44616 0 -6.19429 14.2945 -4.41391e-032 3.18055e-015 7.95139e-016 -9.52968 0 1.42109e-014 -4.17087 -49.0248 -16.8196 1.77636e-015 -40.1884 -7.10543e-015 -0.183122 45.0434 -13.923 0 -39.9954 -7.10543e-015 0.783785 23.0455 8.82988 3.55271e-015 -6.19429 14.2945 -5.96354e-016 -3.18055e-015 -3.97569e-016 
